<?xml version="1.0" encoding="utf-8"?>
<!-- Generator: Adobe Illustrator 17.0.0, SVG Export Plug-In . SVG Version: 6.00 Build 0)  -->
<!DOCTYPE svg PUBLIC "-//W3C//DTD SVG 1.1//EN" "http://www.w3.org/Graphics/SVG/1.1/DTD/svg11.dtd">
<svg version="1.1" id="Layer_1" xmlns="http://www.w3.org/2000/svg" xmlns:xlink="http://www.w3.org/1999/xlink" x="0px" y="0px"
	 width="187px" height="80px" viewBox="0 0 187 80" enable-background="new 0 0 187 80" xml:space="preserve">
<g>
	<path d="M40.733,20.047h6.688l-0.045,25.215h-7.439l0.073-4.471h-9.657l-3.686,4.471l2.017-10.993L40.733,20.047z M40.3,35.391
		l0.232-7.118l-5.847,7.118H40.3z"/>
	<path d="M60.748,26.306h-7.511l2.581-6.08h21.96l-2.581,6.08h-7.511L59.64,45.262h-6.939L60.748,26.306z"/>
	<path d="M84.349,26.306h-7.511l2.581-6.08h21.96l-2.581,6.08h-7.511l-8.047,18.957h-6.939L84.349,26.306z"/>
	<path d="M104.414,20.226h20.136l-2.505,5.901h-13.269l-1.609,3.792h12.018l-2.323,5.472h-12.018l-1.685,3.97h13.448l-2.505,5.901
		H93.787L104.414,20.226z"/>
	<path d="M128.266,20.226h6.474l4.684,13.233l5.617-13.233h6.867L141.28,45.262H135.2l-4.864-13.734l-5.83,13.734h-6.867
		L128.266,20.226z"/>
	<path d="M156.336,20.226h9.657c8.941,0,11.942,5.15,8.875,12.375l-0.03,0.072c-3.067,7.225-10.602,12.59-19.615,12.59h-9.514
		L156.336,20.226z M158.085,39.11c4.149,0,7.874-2.289,9.59-6.331l0.03-0.072c1.7-4.006-0.067-6.331-4.216-6.331h-2.826
		l-5.405,12.733H158.085z"/>
</g>
<path d="M29.913,21.671c0.976,1.705,1.036,2.394,0.183,2.066c-0.853-0.328-1.499,1.061-1.938,4.163
	c-0.438,3.104-1.05,6.707-1.834,10.809c-0.785,4.103-1.449,7.112-1.996,9.025c-0.546,1.914-1.044,2.88-1.493,2.9
	c-0.448,0.02-1.108-0.254-1.977-0.822c-0.868-0.567-1.444-1.862-1.725-3.885c-0.282-2.022-0.333-4.283-0.154-6.786
	c0.179-2.501,0.606-5.661,1.281-9.481c0.676-3.818,1.123-6.968,1.344-9.451c0.222-2.481,1.014-3.605,2.378-3.372
	c1.364,0.234,2.46,0.677,3.288,1.329C28.056,18.798,28.937,19.966,29.913,21.671z M32.759,3.861
	c1.031,0.827,1.648,1.624,1.852,2.393c0.204,0.77,0.172,1.789-0.095,3.06c-0.266,1.271-1.082,2.061-2.445,2.37
	c-1.363,0.311-2.196,0.432-2.502,0.364c-0.304-0.067-0.687-0.132-1.148-0.196c-0.461-0.064-1.433,0.212-2.916,0.828
	c-1.482,0.616-3.825,1.573-7.029,2.871c-3.204,1.299-6,2.093-8.387,2.381c-2.388,0.29-4.585,0.151-6.594-0.414
	c-2.008-0.565-1.995-0.727,0.037-0.487c2.033,0.241,4.446,0.145,7.238-0.289c2.793-0.432,5.547-1.492,8.261-3.179
	c2.715-1.685,4.773-3.76,6.177-6.225c1.403-2.464,2.75-3.856,4.039-4.175C30.558,2.804,31.729,3.036,32.759,3.861z"/>
<g>
	<path d="M24.413,57.872c12.088-9.501,113.099-9.725,143.133-8.541c4.825,0.145,3.609-0.093,5.539,2.587
		c-32.322-1.153-130.536,2.365-149.557,15.604C21.654,63.384,21.034,60.428,24.413,57.872z"/>
</g>
<g>
	<path d="M91.07,64.487l0.601-0.71c0.894,0.809,1.752,1.213,2.94,1.213c1.152,0,1.912-0.612,1.912-1.458v-0.024
		c0-0.796-0.429-1.25-2.23-1.63c-1.973-0.429-2.879-1.066-2.879-2.475v-0.025c0-1.348,1.188-2.34,2.818-2.34
		c1.25,0,2.145,0.355,3.014,1.054l-0.563,0.747c-0.796-0.649-1.593-0.931-2.475-0.931c-1.115,0-1.826,0.613-1.826,1.385v0.024
		c0,0.809,0.441,1.262,2.328,1.667c1.911,0.417,2.793,1.115,2.793,2.426v0.024c0,1.471-1.225,2.426-2.928,2.426
		C93.214,65.86,92.1,65.406,91.07,64.487z"/>
	<path d="M108.146,62.343l-3.565-5.183h1.176l2.892,4.289l2.916-4.289h1.127l-3.566,5.171v3.406h-0.98V62.343z"/>
	<path d="M119.599,64.487l0.601-0.71c0.894,0.809,1.752,1.213,2.94,1.213c1.152,0,1.912-0.612,1.912-1.458v-0.024
		c0-0.796-0.429-1.25-2.23-1.63c-1.973-0.429-2.879-1.066-2.879-2.475v-0.025c0-1.348,1.188-2.34,2.818-2.34
		c1.25,0,2.145,0.355,3.014,1.054l-0.563,0.747c-0.796-0.649-1.593-0.931-2.475-0.931c-1.115,0-1.826,0.613-1.826,1.385v0.024
		c0,0.809,0.441,1.262,2.328,1.667c1.911,0.417,2.793,1.115,2.793,2.426v0.024c0,1.471-1.225,2.426-2.928,2.426
		C121.743,65.86,120.628,65.406,119.599,64.487z"/>
	<path d="M136.442,58.055h-2.879V57.16h6.739v0.895h-2.879v7.683h-0.98V58.055z"/>
	<path d="M148.47,57.16h6.2v0.882h-5.232v2.929h4.68v0.882h-4.68v3.002h5.293v0.882h-6.261V57.16z"/>
	<path d="M163.035,57.16h0.98l3.125,4.681l3.125-4.681h0.98v8.577h-0.968V58.79l-3.125,4.595h-0.049l-3.125-4.583v6.935h-0.943
		V57.16z"/>
</g>
</svg>
